<?xml version="1.0" standalone="no"?>
<!DOCTYPE svg PUBLIC "-//W3C//DTD SVG 1.1//EN" "http://www.w3.org/Graphics/SVG/1.1/DTD/svg11.dtd" >
<svg xmlns="http://www.w3.org/2000/svg">
<metadata></metadata>
<defs>
<font id="hoyle_playing_cardsregular" horiz-adv-x="900" >
<font-face units-per-em="2048" ascent="1638" descent="-410" />
<missing-glyph horiz-adv-x="569" />
<glyph horiz-adv-x="0" />
<glyph unicode="&#xd;" horiz-adv-x="569" />
<glyph unicode=" "  horiz-adv-x="569" />
<glyph unicode="&#x09;" horiz-adv-x="569" />
<glyph unicode="&#xa0;" horiz-adv-x="569" />
<glyph unicode="!" horiz-adv-x="819" d="M312 1212h8l-24 -44l32 40l12 4l-32 -40l24 8l24 32h8l-12 -24l-12 -8q-28 -2 -32 -28l4 -8h36l8 -16l-12 12h-36v-16l28 4l16 -12l8 4v-20l-56 4l8 -68l36 -68l-4 -4l-4 8l-40 -28l-36 -36l36 -16l28 16l32 -8l4 12h20l-4 -16l24 12l36 -4l8 16h12l-4 -12l-12 -4l16 -4 l4 8l36 12l16 -4l-4 16h-16l8 4l-12 52l-48 -32l-40 -16h-36l-4 8h52l68 44l4 92l-28 52q-9 30 -48 40l-16 4l-24 32l72 -44l-8 12l-40 28l12 4l20 -16l-4 16h32l40 -64l120 -124l32 24l-28 84l16 80h8l-20 -48l8 -72l20 -32v-12l-24 -16q-15 -16 -16 -40l8 -20l72 -56 l8 -16l-44 28l-112 108l-68 92l40 -76l56 -72l116 -116l8 4l4 -180l-84 56l-72 12q8 20 36 28l28 24h16l40 40l-132 -80l-176 -120l-36 8l24 108l4 -12l24 8l-20 20l-4 -8v32l12 4l-4 -16l24 4l-8 8h32l12 -12q0 -10 12 -12l24 28h-12l20 4l-96 -104l-8 -16l148 124l-8 4 l136 28h-64l-104 -20v12l76 16l-20 4l16 12h16v8l-68 -12v-20l-100 -8l4 12l64 4l-4 16l92 20q-17 18 -52 20l-32 -24l-48 12l-20 -16h-20l-32 16l-16 -4l-4 -8l-36 -4l-24 20l-32 -28l68 -8l-12 -12l-72 12l12 -16l-24 -4l72 -12l-4 -12l-104 16v-12l72 -12l-12 -4l48 -104 l8 -4l-32 96l8 -8l16 8v8l72 -4l-20 -112l-8 -4l8 116h-40l8 -12l16 -8v-12q-12 -1 -16 -16l16 -4l4 -12l-8 -76l-60 12l-72 24q11 -20 40 -24l152 -40l100 -12l32 -64l36 -40l132 -84h-12l4 -76l-44 8l8 -12l-20 4l-4 44l-36 -20l4 -16l-12 8l-40 -28h-8l-4 -80v68l-24 -12 v-72l-48 -140l52 100l-56 -132l-8 -80h-8v36l-24 -36l20 44l-32 -44l-12 4l36 40l-32 -16l-16 -28h-8q9 30 44 40l12 12v12l-40 4l-4 8l44 -4l-4 16l-52 8v40l12 28l-40 8h20v12l24 -16l-12 -52l52 -4v44l-8 28l-44 76l-16 8l-64 -16l-48 -32v-100l8 -4l20 -40q5 -23 28 -32 l40 -16l16 -28l-8 4q-10 21 -36 28l-24 12l16 -24l28 -12v-8h-8l-16 16h-12l12 -16h-12l-8 8l-4 -8h-12l-84 120l-76 68l-28 -28v-8l-8 8l8 12q24 8 32 36v28l-84 64v8h8l100 -88l64 -68l52 -84l12 -8l-20 44l-92 132l-116 112l-8 -4v92l20 -8l-20 16l4 80l40 -36l56 -28 l56 -4l-32 -28l-36 -20l-24 -4l8 -8l-40 -28h20l88 64l188 120l4 8l44 -4l-20 -96l-28 -8l16 -20l4 -24l12 8l16 104l8 4l-8 -116h12v32l8 -4l12 8l-4 12l-12 4l4 88l76 -16l52 -20v8l-84 32l-200 32l-48 80l-64 60l-100 52h20v24l12 -4l32 8v8l-16 4l16 4v20h-12l8 12 l-40 16v8h32l-4 -8h-12l4 -8l36 -12v-40l40 20l-8 16l20 -8l68 52v68l48 144l-20 -32l16 36l20 100v-28q21 19 24 36zM484 1212h28l12 -20l24 -16v32h8l4 -40l60 44l-4 -12l-44 -36l20 -16l20 -4h-40l12 -36l48 -52h-12l-28 24q-21 8 -28 32l-12 36l-52 36l-8 16zM432 1144 l8 -8l-64 8h56zM404 1124l36 -4l4 -20l-52 -4l-8 12q12 3 20 16zM292 1104l-24 -108l4 -60l48 32l12 16l-32 64l-4 52zM492 1072v-48l16 -72l20 -32l48 -44l40 -16l64 -4l-8 16h-32l-52 16l-28 24l-24 40v12l32 -44l16 -12q13 -20 40 -24l36 -4l-16 20h-12l-44 20l-28 44 l44 -48l24 -8l-128 160zM352 1044h36l-20 -4l4 -12l-28 24zM400 1008v-12h-56l-4 8zM76 972l4 -52l28 -20h68l-8 -8h-32l8 -8h-36v-8h-16l-4 12h-40l-8 -12v-24q-15 9 -16 32q10 17 32 20l8 4l20 -8v8l-12 12l-48 4v48h52zM28 968v-12h12v12h-12zM56 968v-12h16v12h-16z M44 952l-4 -12h16v12h-12zM28 936v-12h12v12h-12zM56 936v-12h16v12h-16zM288 912h16l-4 -12l-16 4zM324 868h92l4 -8l-100 -4zM248 856l104 -8v-12h80v-12l-132 -4l-56 24zM44 852l28 -4l-24 -4l4 -12h24l-28 -8v-12h12l-16 -8v48zM80 756l68 36l8 16zM52 792v-12l36 20z M268 796l-8 -12l16 -16l12 4l8 12l-12 4zM392 796l-28 -16l12 -16l36 8l4 8q-5 11 -24 16zM176 780l-52 -32l-8 -12h12l56 36q-4 7 -8 8zM256 776l4 -20l12 -4l4 12l-12 12h-8zM0 776l16 -4v-20l16 12l56 -28l-4 -260l-32 16l-20 32l-4 -8l-28 16v244zM176 756 q18 -13 20 -36l-12 -8v-8l52 -16q-2 22 -20 36l-24 40h-12zM396 764l-12 -12l4 -8l24 20h-16zM132 736q4 -15 24 -24l16 -4l-12 20l16 28zM280 756l-8 -12l8 -8l16 12zM368 752l-16 -12l4 -8l28 8q-5 10 -16 12zM28 672l8 4l4 44l-8 16zM176 740l-8 -16l16 -8l4 20zM344 740 l-4 -16q10 0 12 12zM596 740v-252l-24 12l-56 48l-32 48l-12 44v52l28 40l28 8h68zM524 736q-27 -8 -40 -36l-8 -40l12 -60l40 -56l52 -44l12 12h-16l-8 8l24 20h-52v20h16l-24 20l4 8q0 10 -12 12l4 -20l-16 -4l-4 20l16 4l-12 16v16l-8 -16l-16 12l16 12v20l12 8l-4 16 l8 20l32 -8v12l28 28h-56zM528 732l20 -4v-8l-20 -8v20zM608 732l40 -16l20 -32l4 12l24 -16v-248l-88 44v256zM100 724l84 -64l40 -72l4 -64l-36 -48l-32 -12l-56 4l-8 8l4 240v8zM344 712l16 4l-12 4zM576 708l12 -8l4 12l-8 4zM108 712q1 -16 20 -20l-16 -16v8l-4 -12h16 l16 -16v16q18 0 20 -20l-20 4v-8l16 -8l8 -12l-4 -12l24 -16l-4 -24l12 -4l-4 20l12 4h-8l16 -8v-12l-16 -4v-20l-12 -8l4 -24l-8 -12l-24 4l-28 -16v-16h-8l8 -8h40l-12 8v16h20l-8 -20l24 8q21 9 28 36v68l-28 56q-68 62 -80 68zM560 704v-8h12l20 -16l-16 24h-16z M332 696v-12l12 8v8zM456 704h8l-4 -68l-84 8q69 48 80 60zM528 696l-8 -16v-24h-8v-12l16 -16l-4 -20l16 -8l4 -24h16l8 -28h24v12l-12 -4l-8 24l-20 4v24l-20 4l4 24l-12 4l-4 12l16 16l-8 4v12l28 -4l4 8l-12 4zM444 688l-8 -12l16 -12v24h-8zM508 692l-4 -20h-12l-4 16z M560 676l-24 -4l12 -8l-20 -20l12 -8l8 4l-4 8l24 24l24 -4l-28 16zM396 656l16 -12h12l-4 16l8 12zM108 664l-4 -12h16l8 -8v-16l20 -4v-24h16v-16l12 -20l-4 -12h-8l4 -28l-28 4v-8l28 -8l8 4l-4 20l16 28l-16 12v28h-12l-8 32l-16 4l-8 24h-20zM432 664l-4 -12l8 -4l4 16 h-8zM572 664l-12 -8v-40l32 -28l-4 12l-16 8l-12 28l4 16l28 8zM440 648l4 -8l8 4l-4 12zM240 624l4 -20h12l-12 24l12 16l-32 4zM664 636l-12 -20l4 -28l8 -12l4 8zM108 644l-4 -12l16 -8l-4 20h-8zM24 564l8 4l12 44l-12 20zM268 636l8 -12l-8 -20l24 -4l12 32l-16 4h-20z M188 628l-4 -12l-16 4l4 12zM256 632v-20h12v16zM316 628l4 -20l-8 -8l32 -8l-8 24h8q-8 8 -28 12zM104 620l24 -24l8 -20l-16 -24h12l12 12l-4 20q-5 30 -36 36zM124 620l16 -16v16h-16zM304 620v-16h8v16h-8zM356 620l8 -12l-8 -20l24 -4l4 32h-8zM348 616v-20l8 4v12z M400 612l4 -16l-8 -16l32 -8v36l-16 4h-12zM388 604l-4 -12l8 -4l4 16h-8zM436 600l-4 -20l8 -4l8 16zM452 580h-8v-16l28 -4l-16 28zM144 592l4 -16l12 16h-16zM576 580l12 -12l4 12l-8 4zM152 572q-6 -29 -32 -32h-12l16 -8v-8h8l4 12l24 -4l-8 20l12 16zM240 576l80 -8 l-4 -12l-84 -48l4 60zM276 544l24 12l-24 12v-24zM260 560l-4 -12l8 -4l4 16h-8zM248 544l-4 -24l16 8q-1 10 -12 16zM664 540l-12 -36l12 -36l4 64zM196 540l12 -4v-16l-16 -4l-4 16q4 1 8 8zM104 528v-8h12q3 -15 20 -16v12h-12l-8 12h-12zM452 528l16 -32l12 -4v-8 l28 -28v-12l56 32l-4 12l-36 16v-8h8l4 -12l-20 -28l-12 12l-4 24l12 16l-52 20h-8zM340 524l-12 -16l-152 -120l-108 -24l48 -4l116 24v-16l80 4v-12l-28 -4h92v-12l-96 -4l-4 8l8 4l-8 8l-68 -12v16l-48 -8h20v-12l-28 -8l44 8l56 -4l-92 -16q3 -15 24 -20l28 -4l20 20 l60 -8l16 16h28l20 -16l40 16h20l32 -20l4 8l24 12v8l-72 8l12 12l60 -8v12l8 8h-32v-12l-108 4v20l-76 -4l-4 12l132 4l-4 -16l36 -4v16l108 -16l4 8l-56 16l-132 12l-116 -8l112 124h-8zM400 524v-12l8 -4zM416 516l16 -56l-12 -8l16 -16l8 8l12 -40l16 -4l-8 36l-40 76z M104 496h20l-12 16zM336 492h16l-4 8h-8zM516 496l-8 -16l12 -12l8 20zM320 480h8l4 12zM396 488v-16l12 12zM344 476l12 -4v12h-8zM312 472l4 -12h16l12 8l-4 8zM408 472l-4 -12l12 -4l8 8l-4 8h-12zM304 468l-20 -24l32 8q-1 10 -12 16zM592 448l-52 -36h-8v-8h8l76 52z M316 448l-36 -12l20 -24l32 16q-1 13 -16 20zM408 440l-8 -12l28 -12l8 8q-9 16 -28 16zM272 432q-16 -5 -24 -28l44 4q-8 18 -20 24zM616 420h24l4 12zM20 424l32 -12l-28 16zM392 424v-16h20q-3 13 -20 16zM320 412h16l4 8zM444 420l-12 -8l4 -8h16v12zM620 412l-16 -12 l44 4v8h-28zM608 396v-24l40 -4v12h-20l20 4l-4 16zM656 364l16 -16v-24l-12 -12l-44 -4l4 -12l52 -4v-52h-48v36l-24 28l-4 16l-32 -12h-52v12l32 12l24 -8l20 4v8l44 8l-12 8l8 4l8 -8h12v-12l-40 -4l4 -8h32l16 16l-4 16v8zM16 348l28 -12h32l60 -36l28 -48l8 -40l-32 72 l-28 24l-48 24l-28 -4l16 -16l52 -16l20 -20v-8l-56 36l4 -12l64 -64l8 4l4 -20l52 -64v72l-12 40l-40 56l-60 36l-68 4zM520 324l-4 -12l28 8v8zM312 320l-12 -16l-20 -4l-24 8l4 -8l-20 -8v16h12l-16 4l-8 -12l-16 -8h-32l8 -12h12l-8 -4l12 -52l88 48h20q24 0 48 -32 l72 56l-16 20l-24 4l-20 -16h-24l-4 8h-8l-12 -12l-12 4v8l16 8h-16zM392 312h20v-12h-20v12zM624 288l4 -12l12 4v8h-16zM656 280l8 -4l4 12h-8zM388 252q-17 -7 -20 -28l28 -48l12 -52l16 92v64zM644 276l-4 -12h16v8zM624 256v-12l16 4v8h-16zM656 256q0 -10 12 -12v12 h-12zM296 220l40 -8l20 4v-8h-60v12zM56 160l36 -12l40 -36l16 -40l20 -24l32 -24l12 -24h-24l-12 20l-24 16l-8 -36l-8 44l-12 -4v-8h-8l-20 -28l-16 -4l48 56l-44 12h40v16l-16 28l-40 40zM80 88l-4 -48l-16 -40l-4 8l16 40l4 36l-12 36zM308 116l4 -12l-20 -12h-36l-4 24 h56zM260 76l56 -4l4 -8h-48z" />
<glyph unicode="#" d="M208 1208l20 -8l4 8h28l8 -8l60 8l96 -8l44 8l40 -8l32 8l-24 -64l-8 -8l16 -56l8 -84l12 -4l8 -28l-12 -12l68 -48l12 224l16 12l16 -12l12 -264l24 -16v-160l-32 4l-16 12l-56 -12l-12 20q-15 -1 -20 -16q6 -19 28 -24l104 4l4 -8l-12 -4v-72l-8 -4q-20 -7 -20 -28 l-8 -220l48 8l-180 -88l-8 -12l-4 20l-44 4l20 16l-24 -4l-20 -16l8 16l16 12l-20 -4l-24 -24l12 24l-28 -20l4 12l-28 -4l-16 20l4 -12l-24 12l8 -24l-8 16l-28 12v-8l24 -12l4 -12l-8 12l-28 8l-20 -16v-12l32 -8v16h-16l16 4l4 -20l-28 -8v-12l-8 28l-32 20l-16 -8v-20 l16 -12h-12l8 -112l-12 108h-12v-88l-12 80l-16 -4l8 -84l-12 80h-12l4 -96l12 -40l16 -4l-4 12l16 -12h56l-8 12l-8 68l4 40l4 -88q6 -32 24 -32l-4 52l16 -48l8 -8h136l8 20l-8 32l-32 -8l-28 16l8 -28l52 4l-8 -12l-40 -4l-16 32v24l20 48l-12 4l-8 16l28 -20l-24 -60 l64 4l4 84q1 29 24 32l-16 -24l8 -8h20l-12 -8l-4 -72v72l-8 4l-12 -112l8 -44l32 -72l-20 16h-12v-12h-28l4 8h-44v-12l-24 12h-56v-12h-20v12l-56 4l-4 -12h-20l4 8l-56 4l24 60l-24 148l-12 4v32l8 12l-72 44l-4 20l8 188h28v-16l20 -4l8 20l-8 12l-44 8l76 56 q-1 12 -16 16l-8 -16l4 -4h-12l20 28l12 -8l8 -16l8 4q-3 14 -20 20v8h-8l-32 -28l-4 8l40 28l32 -32l12 4l-16 16l-40 16l-4 -8l-32 -16l4 -12l-16 8l-16 20l-4 16l-44 -28l4 -8h-8l-4 -12l44 4l-24 4h36v-16l-8 4l8 -8v-28l-20 -4l4 8h-36l-4 -12h12l8 -12l-48 -4l4 24 l4 -16h12v72l24 16l4 208l8 32h-12l-44 -20v12l64 24l128 64v16l4 -20l12 -12h28l16 24l4 -8l-24 -24l8 -4l28 24l-8 -20l-16 -12l20 4l16 24v-20l40 12l20 -20l-8 20l28 -28l-4 24q6 -19 32 -24v8q-16 2 -24 16l32 -12l20 12l-4 20l-16 8l-12 -8l4 -12h12l-16 -4v24l20 4 l4 16l-8 132q-10 20 -32 20h-124v-32h8v8l48 8l12 -28v-36l-16 -28v-16q16 -1 16 -16l-24 16l20 60l-56 -4l-8 -24l4 -48l16 4l4 -16l20 12h12v-8l-8 -4l12 -8h24l-4 16h12l16 -12l20 4v12l-12 -4l12 8l4 -20l-24 -8l-16 4l4 -16l-20 8h-28l-4 -8v16h-24l-20 12l-8 -28 l-24 -8l20 8v20l-20 4l8 12v72l16 76q-27 60 -28 64zM364 1184l-32 4l-12 8l-52 -12l-24 12l-16 -16l292 -4l4 8l-44 8l-52 -8l-40 16zM236 1168v-8l276 4l-268 4h-8zM400 1136l12 -60v-72l12 -56l28 -16l12 12v20l-20 4l-4 -8q-22 175 -40 176zM424 1136l12 -40l4 -124h20 l-8 88l-16 76h-12zM448 1136l20 -160l16 4l-4 100l8 -88l16 -4l-4 92l12 -88h12l-12 124l-20 16v-12l-8 12l-12 4l-8 -8l-8 8h-8zM608 696q15 1 24 16v164l8 48l-16 96l12 88l-4 20zM236 1116l-8 -24v-28l8 20v-20l8 8l-4 40zM320 1120l60 -4l12 -12v-8l-64 12zM248 1100 v-16l36 8l16 -8l8 8l-48 12zM400 1076l-8 -12l-56 4l24 20zM312 1020l24 -8l4 8v-12l-28 4v8zM520 988l16 -28l8 20l-8 12zM508 976l4 -24l8 4l4 20l-8 8h-16zM484 976l8 -12v-16h8v28h-16zM468 972l4 -28h8l4 24zM524 948l-36 -12l-60 -112h-24l12 -12l20 4l56 52l40 76z M304 924l-40 -20l8 -28l120 -8l8 20h8l4 20l-44 -12l-44 16l-8 12h-12zM168 920l-4 -36l8 -8l36 20v20l-24 -4v8h-16zM572 912v-24l12 16l-4 8h-8zM244 908l44 -92l44 -140l-8 56h60l24 12l-76 16l-16 -16l-24 80l-32 64q-1 16 -16 20zM532 900l-20 -40h12v8l20 -8l-4 -16 l8 -4l24 48l-28 -8l-4 20h-8zM68 888l60 -16l-4 -12l-4 16l-16 -12l4 16h-8q-15 -11 -16 -36v-116l8 4l8 68l16 -4v56l4 -56l12 -8l8 72v-60l12 4v60l72 -52l40 -44l52 -92h8l-16 36l-64 92l-56 52l-72 32h-48zM224 868v-28l28 8v16h-16zM160 856v-48l12 -8l4 12l4 -24l12 4 v44l-16 4q-3 10 -16 16zM408 856l-116 -4l-8 -8h124q4 8 0 12zM444 816l-60 -24l44 -16l36 20l8 44zM500 840l-12 -48l8 12h16l4 -24l16 48h-12v-8l-12 4l4 12zM200 828v-36h8l4 28zM304 820l-4 -16l44 -12l-32 -4l-4 -8l8 -16l88 4l4 8l-32 12h-20l56 16v8l-80 12zM264 812 v-12l12 4q-3 6 -12 8zM216 808v-56q0 -18 16 -36l4 80q-8 9 -20 12zM156 804l-16 -16l20 -20l12 24q-4 5 -16 12zM104 792l8 -20l16 -16h8l12 -60l-12 -4l-8 8l-40 12l-8 -36l8 -36l72 28l64 -28l8 4v64l-60 -12l12 56l-32 8l-4 16q-21 15 -44 16zM192 788q-21 -4 -28 -28 l16 -4q19 1 24 20l4 12h-16zM384 760l24 -16h24l24 12l4 32zM100 772v-24h12l8 8q-4 12 -20 16zM196 760q1 -12 16 -16v28zM476 772l4 -40l12 8l12 -4l8 -12l4 44l-28 -12v12zM388 728l24 -20h12l32 16v24zM244 736v-8h32v8h-32zM328 728l4 -28l68 4l4 8l-32 12l-36 4h-8z M248 720l-4 -16h48v8l-36 4zM448 716l-68 -20l16 -16h32l24 8q0 27 -4 28zM508 704l-8 -16h-12l-12 12v-48l16 16h12l4 -16l8 16v36h-8zM264 696l-20 -8v-8h64l-4 8l-28 4zM336 696v-16l56 -8v8q-14 15 -44 16h-12zM388 668l16 -20h48l4 36zM340 672l-4 -20l-12 -4v-16 l16 -8l-16 -4l-12 16l-24 -16v-16l32 -12l4 16h8l8 -16h-16v-16l12 -4l-4 -12l16 -8l4 20h8l4 16l-16 8l12 12l4 -16l32 8l8 16l-8 8l-12 -4l-4 12h-16l-4 -12l-12 4q15 7 16 24l-8 4l-4 20h-12zM244 652l36 -4l12 8v8l-44 4zM536 620l24 -4l-24 -28l-20 28l-8 -4l28 -32 l36 32l16 -8l24 -28v-8h16l40 40h-44l8 -8h-20v52l36 4v12h-52zM100 640l-4 -12l12 -8l52 32l52 -32l8 16l-64 24zM636 652l32 -4v12zM240 644v-12h36l8 12h-44zM412 644v-12h44v8l-36 4h-8zM624 632h44v8l-36 4zM476 632v-32l40 20v12l-28 -12v8zM624 616h44v8l-36 4z M184 596l-4 -20l12 16l16 -4l12 28zM528 616l8 -20l16 20h-24zM492 604l8 -16l40 -20l44 32l-12 4l-28 -28h-12l-32 32zM28 600v-12h44v8l-36 4h-8zM484 596l-12 -16l64 -28l64 24v12l-12 4l-56 -28l-40 28zM28 584v-12h40v12h-40zM240 584v-12h48l-4 12h-44zM412 584v-12 l44 4l-4 8h-40zM468 576l-12 -44l4 -24l52 12v-60l-28 -28l24 -4l24 16l-4 12h16l-4 -8l8 -8q16 -15 40 -16l-4 12q-6 18 -28 24l-8 64l60 -20l8 20v28l-8 20l-76 -24l-60 24zM180 568v-68l4 12l28 12l-4 -12h12v48h-8l-4 -16l-20 4v16zM240 532l72 12v8l-16 8v8h-52z M404 564l-12 -20h60v20h-48zM304 540q4 -14 24 -20l-12 -4v8l-24 12l-52 -12v-24l56 12l-4 -8l16 -8l60 -8l16 -44l-24 8h-48l-28 20l-40 -12l-8 -24l8 -4l28 8l-20 -12q-19 -2 -20 -20l-8 -32l32 28l28 8l-4 -8l24 -8h100l12 -40l32 -52l-64 164l-12 68l32 -64l52 -60v-8 l52 -44l68 -32h36l-52 12l-32 16l-80 72l-68 112h-20l4 -28l-12 4l8 4l-4 20l-28 4zM388 536l8 -16h56v16h-64zM40 524l24 -16l8 12h8q-23 -13 -24 -48l8 -88l-12 -116l12 -92l-8 -84l12 -4l4 48l4 -44l-12 -12h-12l-16 16l-8 244q-1 26 -28 32v152h40zM404 500l48 -4v12 l-44 4zM244 496l-4 -32l52 16l-4 -8l64 -16l24 4l-4 20h-76l16 8l-40 16zM180 496v-48l24 12l12 -16l4 48l-12 -16l-20 4v16h-8zM456 424l24 -16v56l-16 32zM608 496l-12 -32l-4 8l-20 -8v-8l20 -16v-24l-12 4v-8l-8 12h-12l-4 -64v60l-12 -8l-4 -56h16l12 -12l4 8v-12h12 l4 12v-16l16 8l8 28v120zM420 488v-8l32 -4v12h-32zM484 472v-28l16 20zM520 432l16 -20h8l8 24h-8v8zM384 440l8 -24l-40 4l32 8v12zM156 384l28 12l4 -24q15 3 16 28l8 16h-32v16zM296 436l52 -12l-44 -8l4 12l-20 4zM500 420v-40l12 -4l4 52zM484 424v-28l12 -8v36h-12z M416 412l4 -8h12v12zM520 416v-48l16 -8v48zM268 404l-44 -32l-64 -96l4 -8l16 4q23 1 28 24l56 92l24 8zM108 308l12 -4l4 24l28 4v-12l12 -4l16 32l-4 8l-4 -8l-24 12l4 16zM284 376l-48 -84h12l4 16l36 52l120 4v8l-112 4h-12zM460 376q-15 -4 -20 -20l32 -8v28h-12z M320 348q-20 -2 -28 -20l-8 -8v-16l32 16l56 -20l12 -12l48 20l-12 36h-96zM508 336l-24 -16v-16l48 -4l-4 36h-20zM208 264l8 -20h8l-4 32zM196 268v-28h16l-8 8v20h-8zM176 264l-4 -28l20 -4l-8 32h-8zM156 256l-8 -16l4 -12l16 -4l-4 32h-8zM404 236l28 4l12 -8l-12 -16 l-4 12l12 -8l-4 12l-28 -12l-12 4l4 16l-36 -4l8 -12l-40 12l-12 -4l8 -12l-12 12l16 12h28v8l44 -4v-12zM360 212l24 -12h-12l-8 8l-8 -4zM324 156l32 -8l4 -12l-52 -8l-12 12v8l24 4zM300 120l16 -8h48l8 -16l-12 8l-44 -4l-12 12zM184 60l-4 -12h276l-20 8h-244zM176 44 l-8 -12h24l36 -12l44 12l28 -16l48 16l32 -16l32 12l36 -8l8 8h12l4 8l-284 8h-12z" />
<glyph unicode="$" horiz-adv-x="774" d="M224 1204l4 8l48 -8l36 8l40 -8l52 8l32 -8l44 8l8 -8h52l20 8l-24 -52l40 -24q16 4 20 24q15 13 20 40l20 12q-19 -13 -24 -40l-8 -8q-8 -31 -48 -44l4 -32l-36 24v-16l-8 40h-92v-24l28 -120l-16 24l-16 60v60h-24l16 -120l-20 48v72h-152l4 -32l8 8h36l12 -56l-20 -8 l4 12h-44v-64l-8 52l8 56l-16 -20l12 56l-28 64h16zM660 1212l8 -8v-20l-16 -16l-24 8l-12 -32l56 -40v-24l12 -40l-28 -16l32 -156l8 -144l-72 72v-68l-20 -76l-44 -48l-36 -20l8 -4l44 24l8 16h8l36 60l-4 -120l8 -12l4 220l60 -56v-304l-76 -48l-48 8l-48 44l-8 32h-12 l8 4l4 80h-32l32 4v120l44 264l4 -28l24 28l12 4l20 -16l8 12h12l20 -24v-8l24 -20l-4 32q-4 25 -32 36l-24 8h-28l-28 -12l-4 -8v16l-12 -24l-72 -40l8 -12l-12 4v-12l8 4l-16 -40l-4 28l8 28h-20v-12l-4 12h-36l-8 -12h-8l16 16l-4 4l-44 -44v-8l16 16l-68 -100l12 -4 l12 12q0 23 20 36l12 -4l12 40l20 4l16 36h24l8 -24l-8 4l-4 16l-16 4l-12 -20l-4 -28h32l12 16l-8 -244l-4 16l-32 -16l-64 -72l-28 -44l36 8v36l32 16l-4 16l16 20l36 8l4 8l4 -56l-32 -4l-4 -12h36l-44 -8l4 -8h32l-40 -4l4 -12h44l-44 -4v-8l52 -4l-36 -8l4 -8h20l8 -8 l-8 -4l12 -72l12 -16q3 -23 28 -24l32 -48l-40 -108v-28l-16 -56l4 -28l20 -52h-352l28 44l-40 28q-22 -8 -32 -40l-24 -36l28 60l48 32v52l4 -8l24 -12l-8 32l-8 4l-8 -12v44l-8 -4l-72 -168l-20 -8l-4 16l8 4v-12h8v12l-8 8l-16 -8v-24l-8 4l16 32l24 -8l16 32l-28 20 q-31 8 -32 44l-8 36l8 12h12l8 28l-36 136l-4 144l88 -84l-24 28l20 112l28 44l64 44l-20 -4l-40 -28l-44 -68v128l-12 -68v-148l-12 4l-48 48v304l64 36l12 16h20l48 -20l24 -24l16 -44l28 8l-32 -12v-160l-16 4l-8 -8l8 -56l8 12v36h8v-44l-40 -224q-21 -1 -32 -24l-16 -8 l-12 20l-24 -16l-36 52h-12l16 -56l40 -20l20 8l12 -8l32 16l4 32v-40l40 48l44 12l-8 16l16 40h8l-12 -56h24v40l16 -12v-16l12 -4l12 12l4 40h-20l-20 -12l12 216l32 20l64 72l64 92l-32 -12v-24l-44 -20l8 -20q-10 -23 -36 -28v-28l-16 -12l-40 -8v48l36 8l-16 12l16 4 l4 8l-60 4h68l-4 12h-44l44 4v12h-32l16 16l-52 8l28 4l-16 88l-12 20l-32 12l-8 12l20 -4l28 16l-20 -20q22 2 36 20l-12 -20l24 12l-8 -16l8 8q15 2 20 20l16 -16v12l16 -20l20 -8l-16 24l24 -20h24l8 32l-28 4l4 12l24 -12l-12 28l12 -20l16 8l-12 24l12 -20h16l-20 48 l16 -32q7 -18 28 -24v-20q-7 -17 -28 -20l-12 16q2 14 20 16l4 -8h-20l4 -16l20 4l4 28h-36l-8 -12q0 -22 20 -40l48 12l-12 -20l40 20l-8 -16l32 20l-4 -12l16 4l16 20v-8l12 12l8 44l-20 88q15 3 16 24l-12 8h16l-12 -44l24 -88l12 76l4 -12h68l4 20l-56 32l4 36l-12 -4 l20 52l24 40l16 4l-4 -16v12l-12 -4l4 -16h16l8 28l-16 8zM220 1196l4 -16l312 -4l8 20l-40 -8l-36 16l-4 -8l-28 -8l-44 16l-8 -8l-28 -8l-48 16l-32 -16l-40 16zM232 1164l296 -4v8l-300 4zM532 1156l-8 -12q10 -20 40 -20l8 4q-7 18 -40 28zM524 1132v-16l28 -12 q-2 21 -28 28zM620 1132v-44l16 -4l-4 44zM640 1120v-40h16v32zM312 1112l60 -4l8 -16l-60 8zM280 1104l-32 -4l-4 -28l8 12l28 4l4 -12h12q-2 14 -16 28zM660 1104v-28h8v28h-8zM448 1096l48 -156l-44 108l-4 32v16zM544 964v-28l-44 144zM332 1084h40l12 -24l-44 -4v16h-8 v12zM620 1080v-12h12v12h-12zM620 1064l36 -28h20v24l-36 4h-20zM572 1060l4 -12l-20 -28l8 24zM216 1048l4 -16l8 8l-16 -68l16 -40h8l-8 -16l-16 -4l-8 12l12 -8l12 12l-12 20l-24 -4l-8 -20l-12 8l16 8v32l28 60v16zM584 1012v-8h68l-4 8h-64zM196 960l4 -8l12 56z M280 1008l24 -20v-12l-20 16q-3 6 -4 16zM304 1004l16 -12l-16 4v8zM580 980l-8 -36l28 12h36l32 -16l-8 24h-36l36 12l-72 4h-8zM284 968l48 -4l4 -12l-16 8l-40 -4zM188 888l-36 12l-12 20h12zM344 916l24 -12l-16 -4zM292 908q-9 -25 -40 -28l-8 -12l8 -12l16 -84l28 -4 v8l84 104l-32 -8q-46 29 -56 36zM92 888h16l32 -20h-32l4 12l-16 4zM184 868l16 -28l-36 24l-4 16h8zM28 856h24l-52 -32v24l56 32zM164 876l12 -12v12h-12zM536 864l-20 -44l-4 12l12 32h12zM556 864l8 -16l4 8zM104 840l-68 -44l136 -32v20l-8 4v12l-44 28l4 8h-12z M580 836l12 -12v8zM216 836h12l8 -48l-24 36zM216 824l12 -4l-8 12zM572 748l8 16h24l12 16h-8l4 8l-44 40zM360 828l-8 -16l12 8zM172 828h12l12 -48l-24 32v16zM388 824q-15 -12 -16 -36v-8l24 -4l16 8l4 24l-16 4v8zM592 816l20 -12l-16 20zM420 808l4 -20q18 8 20 28z M348 812l-8 -16l12 8zM488 812h12v-24l-20 -28l4 44zM492 808l-4 -12q8 11 4 12zM84 744l-32 -16v-8l36 -24l-60 -32l52 8q23 17 24 48v20l-32 40l-36 4zM356 784l-12 -8l-8 -44l28 4q15 3 20 20q-16 22 -28 28zM320 776l-8 -16l12 8zM104 772l16 -32v-32l-16 -32l28 4v88 l-16 4h-12zM136 764v-84h8v84h-8zM168 760v-76l8 4v72h-8zM432 756l-80 -104l84 -4l4 108h-8zM476 748l-12 -44l-8 -4l4 48h16zM516 748l-8 -32l-8 -8l-4 20l8 20h12zM588 736l16 -12l4 20h-16zM564 740l-4 -24l-20 -36l-16 -16l-4 -56l12 -4l8 20l-8 36l8 16h44l16 24l-8 4 l-20 36h-8zM324 736v-20l-12 -32l20 4l12 16v16h-8q-2 9 -12 16zM672 724q-1 -23 -20 -36l12 -48l-12 -8l4 -20l12 -12l-16 -28l4 -16l12 -4l4 20l16 12l-16 44l16 12l-4 20l-12 12l16 40q-3 5 -16 12zM264 680v-40h24q23 7 24 32l-16 8h-32zM492 680l-16 -48v48h16zM80 660 l-4 -100l60 64l32 16l8 28l-4 8zM336 660l-12 -8v-8q10 5 12 16zM28 656v-12l-12 -8l-4 -24l16 -24l-20 -16l20 -36l-16 -16v-28l12 -8l16 40v116l8 16h-20zM552 656l4 -20l16 20h-20zM204 656h8l-4 -44l-12 -8v36zM248 652l-4 -44l-16 -4v24l12 28zM568 588l-44 -20v-36 l92 16l4 100zM336 628l-28 -32l-20 -12v-8h68l44 48l-56 4h-8zM232 624v-16l8 4v12h-8zM280 608l8 -4l8 12zM276 604l-12 -12l16 8zM468 604v-20l-20 -28v24l8 20zM504 600v-16l-20 -32l4 48h16zM220 532l-12 -4l-4 20l16 28v-44zM132 572l-12 -16l20 -4v20h-8zM408 568 l-20 -8l-4 -24l48 -8v40h-24zM256 452l16 12l64 84v8l-72 4zM612 540l-20 -44v-28l12 -12q2 -18 20 -24l32 -4l-16 16l-20 8l-8 16l32 16l-36 28l60 36zM568 440h24l-16 24l4 48l12 24h-24v-96zM100 528v-28l28 -32l28 64h-48zM552 532v-88l8 88h-8zM520 452h8v76zM372 524 q-15 -3 -20 -20v-16h12l4 -12l16 48h-12zM196 508l4 -20l-8 -28h-8l-4 20l12 16zM232 508h8v-28l-8 -24l-12 4l12 40v8zM88 484v-20h12l4 12zM324 472l-8 -8l-4 -20h16v-12l16 -4l12 16l4 36zM364 468l-12 -40l-20 -4l-8 -8l-8 -28l-16 -8l-4 4l-24 -44l-16 4l-4 16l-4 -20 l28 -8l84 96l24 36zM252 408v-12l20 4v20l12 12l20 4l4 28zM388 456l-12 -8v-8q10 5 12 16zM80 436l4 -12l28 -28v-8l20 -12l-12 68h8v8zM216 444l-8 -44h-16v16l16 32zM520 444l8 -28l36 -36l24 -8l44 24l16 16h8l-4 8l-120 20zM368 400l-4 -12l-52 -60l36 12l24 -8l24 -20 v-8l56 28l-24 64v40l-20 4zM268 436l-12 -16l16 8zM308 436l-32 -20l4 -16h16v-12l12 -4l16 52h-16zM372 436l-12 -8v-8q10 5 12 16zM496 432l12 -8l16 -36l-12 -8l-16 44v8zM460 420q19 -15 20 -48h-12l-8 40v8zM508 392l12 -4l-8 12zM468 392l4 -16l4 12zM176 392l4 -24 l-8 -24h-8q10 35 12 48zM696 364l-52 -32l-80 -36l96 52l-24 8l56 28zM496 372l36 -28v-16h-12q-23 40 -24 44zM288 340v-8l24 28zM516 344l12 -12l-4 12h-8zM596 340l8 -16l-12 -4l-36 24zM584 336v-8l12 -4v8zM232 328l-24 -20l8 16q-20 -2 -28 -24l-8 -4l8 20l-24 -8 q-21 -9 -24 -40l-4 -24l36 -120l4 -48h96l-4 48l-28 112l12 -20l28 -144h16l4 32l-20 100l-12 28l24 -44l12 -68l-4 -44l152 -4v32l-12 -8h-28l-20 44l16 72l8 -4l-12 -48l16 4l-8 -12l40 -4v88l12 -60l-8 -72l8 4l20 136l-8 12l-4 -36l-8 72h28l-4 -16l-8 16l-12 -8l8 -20 l32 8v24l-8 8h-36l-20 -20l8 16l16 12l-20 -4l-20 -32l4 20l12 12l-8 4l-12 -16l8 16l-8 4l-20 -24h-8l-12 16l4 -16l-24 28l-12 4l12 -24l-20 20l-32 -4l-4 -24l12 -12l-4 -12l-8 8l-8 -4l4 36l-12 12h-24l-32 -16v8l16 16h-20zM560 296l-8 -8l-20 -4l4 8l-28 20v8z M336 312l4 -8h-12l4 4zM268 308h20v-8h-24l-4 -20l24 -16l-4 -8l20 -36l-20 24q-2 21 -24 24v32zM168 212l16 -28l12 -68l-44 124l4 44zM336 268l-12 12h12v-12zM28 268l4 -20l88 -4l4 20l-32 -12l-12 8l-16 -8l-28 16h-8zM116 180l4 -16l8 4l12 36l-12 48zM412 256l4 -8 l-52 -4l-4 12h52zM36 240v-8l72 -4l8 12h-80zM392 216v-8l-36 8h36zM44 208v-8h68v8h-68zM44 196l-4 -20l56 -36l-12 -40l16 8l16 48l-8 40h-64zM24 176l-8 -8v-16l52 -8l4 8zM356 164l16 -24l-16 -16l-36 4l-12 20l52 4zM44 144v-12q10 0 12 12h-12zM64 140v-12q10 0 12 12 h-12zM80 136l8 -8l4 8l-8 4zM400 136l8 -28l44 4v16l-44 -4v12h-8zM24 132l4 -24l8 20zM40 96l16 -4v36l-12 4zM144 132l-4 -20l28 -12v20q-18 8 -24 12zM60 128v-44h16l-4 40zM312 120l68 -12l4 -12l-56 4l-16 12v8zM140 100l32 -20q-3 21 -28 28zM140 88l-16 -4 q7 -20 32 -28h8l4 20q-19 9 -28 12zM172 40h288l-20 8h-272zM160 36l-12 -20l40 8l28 -16l60 12l32 -12l8 8h48l20 -12l4 8l48 8l28 -12l8 20l-256 8h-56z" />
<glyph unicode="0" horiz-adv-x="1068" d="M0 1100h100v-1100h-100v1100zM550 1100q210 0 293 -225q56 -155 56 -298q0 -64 -11 -127q-38 -200 -113 -325t-225 -125t-225 125t-112.5 325t45 425t292.5 225zM450 965q-100 -85 -117.5 -245t0 -310t117.5 -260t200 0t117.5 260t0 310t-117.5 245t-200 0z" />
<glyph unicode="1" horiz-adv-x="1140" d="M0 980l-120 -534h240zM-266 1104h518v-115h-152l300 -923h70v-70h-330v70h110l-80 271h-340l-80 -271h110l1 -70h-331v70h70l300 923h-165z" />
<glyph unicode="2" horiz-adv-x="1139" d="M-69 1126q52 6 98 6q209 0 308 -119q80 -102 80 -209q0 -112 -87 -228l-579 -473h555v168h108l1 -273h-828q-3 16 -3 32q0 92 109 163l554 467q63 92 63 163q0 135 -224 198q-258 17 -333 -232l-112 55q67 224 290 282z" />
<glyph unicode="3" d="M-77 1091q66 22 128 22q131 0 250 -96q77 -93 77 -182q0 -132 -169 -256q192 -70 192 -271q0 -71 -24 -158q-170 -152 -358 -152q-21 0 -44 2q-215 31 -323 252l98 39q93 -144 255 -182q212 17 249 131q76 114 -55 231q-108 42 -282 42v93q172 -14 290 113 q105 146 -98 263q-180 48 -344 -137l-87 74q83 114 245 172z" />
<glyph unicode="4" horiz-adv-x="800" d="M108 1120h97v-740h160v-100h-160v-170h130v-110h-370v110h145v170h-475v100zM110 946l-349 -566h349v566z" />
<glyph unicode="5" horiz-adv-x="820" d="M-300 1081h608v-250h-125v150h-374v-293q214 50 401 -14q143 -88 173 -266q1 -16 1 -31q0 -293 -275 -355q-57 -21 -123 -21q-73 0 -157 26q-176 90 -220 194l120 66q51 -116 220 -163q294 3 301 244q-31 261 -332 216q-106 -18 -176 -83l-73 80z" />
<glyph unicode="6" horiz-adv-x="950" d="M-154 1065q101 52 192 52q187 0 340 -215l-83 -53q-129 178 -313 151q-237 -42 -274 -449q215 292 598 61q92 -71 92 -219q0 -98 -41 -231q-172 -168 -344 -168q-116 0 -232 76q-149 115 -169 435q20 446 234 560zM38 608q-322 -13 -285 -297q110 -207 256 -207 q104 0 226 104q161 333 -197 400z" />
<glyph unicode="7" horiz-adv-x="1000" d="M-388 1110h779v-110l-350 -890h130v-110h-409v110h131l338 890h-469v-200h-153z" />
<glyph unicode="8" horiz-adv-x="1000" d="M300 1105q49 12 98 12q51 0 102 -13q226 -85 226 -239q0 -127 -151 -300q169 -167 169 -297q0 -141 -194 -240q-74 -32 -148 -32q-76 0 -152 34q-194 98 -194 238q0 130 169 297q-151 173 -151 300q0 155 226 240zM300 638q100 -37 200 4q220 238 0 358q-100 28 -200 -5 q-220 -115 0 -357zM500 505q-100 26 -200 -9q-137 -99 -137 -198q0 -80 87 -159q150 -76 300 5q97 70 97 150q0 98 -147 211z" />
<glyph unicode="9" horiz-adv-x="950" d="M-90 1073q46 7 91 7q108 0 211 -41q164 -100 164 -441q0 -137 -27 -314q-33 -147 -190 -230q-106 -56 -202 -56q-48 0 -94 14q-138 41 -205 185l89 48q68 -108 146.5 -133t181.5 6t157 156t31 243q-179 -115 -288 -118t-266 133q-84 133 -84 250q0 55 18 107 q111 159 267 184zM-250.5 827.5q-49.5 -120.5 96.5 -254.5q184 -108 375 48q83 114 26.5 215t-142.5 142.5t-196 5.5t-159.5 -156.5z" />
<glyph unicode="@" d="M272 1216h32l-20 -16v-8l28 16l-24 -16l12 -48l24 4l20 -8v12l-12 12l-28 4h32l12 -44h-48l4 -68l32 -84l-20 -4l-16 -12l-4 -12l132 -12l84 16l-4 8h-12l4 12l-20 44l-8 4l-28 -24l24 24v40l32 -76l52 -64v-8h8l32 -32l64 -28h20l-4 8l-104 60l-40 44l-20 32l-40 108 l56 -124l28 -32l52 -28l-24 24v8l-24 12l-28 28l-20 48l32 -44l-44 92l-8 -8l-20 56l-24 28l-4 56h24l16 -28l120 -128l28 -16l-28 -20l12 -24l32 -32l68 -48v-56l-24 12l-132 140l-76 128l32 -88l80 -120l92 -84h28l-4 -12l-36 -8l-132 -52l-116 -76l76 -12l164 56h48v-8 h-12l8 -8l4 -104l-12 -8l4 -16l-8 -12l8 -4l4 12l4 -48l-12 -28v-68l-4 72h-8l-16 -28l-68 -72l16 -36l20 -16l-4 40l32 16q20 0 24 -32l4 8v-32l-16 -4l4 12l-12 32l-12 -4v-8l-8 4l-4 -16l12 -28l-8 -8v20l-4 -24h-8v-16l40 -36v-28l-12 20l12 -4l-12 20l-4 -8l-32 12 l-4 20h-8v-36l-24 12v-28l-16 -4l-4 28h-16v-20l-4 24l8 16l8 -12l16 4l4 20l-20 4l-8 -8l8 12h16l4 -8h24l-20 16q-5 12 -20 12l12 4l20 -16v8l16 -8v8l-24 20l-36 -4l4 -12l-16 -12l-4 12l-56 -44l4 -100l-56 -132l-4 -88h-32l20 20l-44 -20l16 16q20 1 24 20l-8 36 l-36 -4l-4 -8l8 -8l24 -4l-8 -4q-30 0 -32 28l-4 20l12 32l-4 -32h44l-4 60l-32 92l28 16l-8 4h20v8l-80 12l-100 -4l-36 -8l4 -12l48 8l-40 -8l20 -56l84 52l-80 -60l16 -68l-44 108l-52 72l-84 56l-36 4l36 -32l72 -36l36 -36l28 -52l56 -152v12l12 -24q11 -20 40 -24 l44 -20l-12 -4l-36 16l12 -12l-12 -4l-16 8l4 -8h-12l-20 16l-4 -16h-20l-104 128l-32 28q-16 16 -40 16l-20 -4l28 -84l-4 -48l-12 -32l-4 12l8 16v92l-32 52h44l36 20l-68 72l-44 28v52l48 -28l4 -12l36 -28l40 -44l100 -152l-8 32l-60 108l-112 124l-40 20l-8 -4v16 l84 20l88 40l108 76l-68 12l-144 -56l-64 -4l-4 12l8 4l-8 4v100l12 4l8 32l-8 4l-4 -12h-8v52l8 4v24l4 -12l92 104v8l116 104l-8 36l4 64l20 60l40 88l-4 60v8zM352 1216l68 -32l-64 24zM380 1216h12l32 -16l16 -20q-48 27 -60 36zM412 1216q16 -1 28 -20l-24 16z M492 1216h16l16 -24l28 -16v32l8 -32l56 40l-44 -52l20 -8h-24l4 -20l24 -36l36 -28l-8 -4l-32 16l-20 20l-20 60l-36 12l-24 32v8zM652 1200l-12 -32l8 40zM368 1176l48 -8l12 -8l-60 8v8zM228 1020l-12 -64l8 -44l16 8l4 56l16 60l28 52v68zM504 1140l88 -112l20 12 l-104 108zM380 1148l44 -4l4 -16l-12 4v-8h-40l4 12h-8q6 2 8 12zM648 1084l28 -44l-36 8h24l-12 20zM372 1068l-20 -4l4 -12l-24 20zM492 1072l12 -24q-8 9 -12 24zM284 1032l-16 -76l12 -8l4 8l40 20l-28 84zM336 1032l48 -4v-12l-8 8h-36l-4 -8l-4 4zM48 924h-8l-4 8 l-12 -4l4 16zM120 944l16 -4l-8 -20h28v-16l-8 -8l-8 8l-24 -4v-16h-16l-8 -8l48 -24l16 8v-12l-28 -4l-8 12l-24 12l16 -16l-20 12l-4 -4l8 -12l24 -12l-28 8l-16 20l12 -32l-20 8l8 -36l-20 -12l-28 -4l-12 32l-4 -56v72l16 12l-4 -12h-12l16 -36l8 4l16 -8l-4 16l8 -4v52 l4 -20l8 12l-4 12l8 16l-8 20l-8 -4l4 8l-16 12l28 -12l-16 16l16 -4l8 -24l8 -4l8 20l-4 12l8 -8h16v24h-8zM236 904l64 -20l52 -8h92l64 8l40 12l-24 28l-16 -28l-20 12l-12 16l-40 -36l-28 28l-16 -4l-12 -20l-20 -4v8h-8q-2 21 -24 24l-24 -24l-24 16v16l-12 8zM252 896 l20 -36l8 -4l44 -96l-4 32l-36 80q-12 18 -32 24zM192 872q5 -19 28 -28l68 -84l-48 84l-40 36zM476 880q-20 -10 -28 -32l-60 -92l-12 -40l48 80l76 84h-24zM568 880l-48 -32l-92 -96l-8 -20l72 72l80 56h8l4 12zM356 848h-8l-4 -16l16 -4v-8l24 12l-12 12l-4 20zM176 856 l-4 -12l44 -32l60 -68q3 -18 24 -24l-72 96q-32 33 -52 40zM572 840l-104 -72l-28 -28l8 -4l24 24l124 68l36 12l-24 12zM712 824v-44l-112 -20l-116 -36l4 12l76 40l132 44zM352 808v-12l-12 -8l4 -12h12l4 -8l4 8l16 4l-4 12h-8v16h-16zM160 804l-4 -12h-12l-8 -8 q2 -16 20 -20l8 16l-4 4l12 16zM212 784l-8 -16l-28 -16l4 -16l44 -4v-16l-8 -4q-27 -2 -28 -20l32 -8l4 -24l-44 -4l16 -24l16 -8v-16h-52l8 -24h8l8 -32l44 92v100l-16 32v8zM224 768l16 -88l-20 -84l-76 -88l36 16l-4 4l36 44l32 88l-8 88l16 -16l4 8q-18 23 -32 28z M564 768l-32 -20l40 8l4 8zM212 760v-8l-20 -4v8h8zM352 744h-8l12 -16l12 4l-8 24zM104 740l-4 -12h-16v-16l20 -4v16l12 16h-12zM596 720l-76 -56l-36 -68l-8 -92l24 -76l4 20l12 12l-20 4l20 8v-12l20 8l-4 12l-44 4v20l36 12l-4 12l-24 4l-12 12v12l44 8l-16 24l-16 8 l8 20l40 -8l4 20l-24 24l8 16l52 -16v12l-12 16l4 24h20l28 -24l4 44l20 4l20 -36l12 4v20l12 24h-32zM152 728q-18 -8 -20 -28l24 -36l8 4l-8 64zM256 724l60 -92v-24l12 4l-28 64l-40 56zM240 620l-16 -44l-24 -28l8 -4l104 72l-56 104zM604 720l16 -20l-8 -4l-8 16v8z M532 700v-16l28 24zM52 668l-12 4v-24l20 4l-4 16l12 16h-12zM480 672l16 8h-12zM552 684h8l8 -16q-11 2 -16 16zM100 676l-40 -56l28 -12q25 2 36 28v24l-12 16h-12zM460 652l-64 -52l24 -52l36 -44l8 76l20 60l20 32h-8zM668 672l-64 -28h36l36 -16l24 44l-12 -4zM332 668 l-12 -12v-16l12 -24h8v-12l-4 8l-32 -24l8 -24h12l16 12l4 16l16 -32l16 -12l16 12l-16 48l28 20l-8 24l-40 -24l-12 40h-12zM276 664l20 -52l-44 -24l16 80zM200 648l20 -4v-8l-24 4zM532 632v-8l-20 8h20zM384 612v-20l28 -52l4 8l-28 56l16 16h8v8zM448 628h12l-16 -76 l-28 32q18 26 32 44zM612 612q-25 -10 -28 -40l8 -24l20 -4l36 56l-16 12h-20zM480 608q-4 -9 4 0h-4zM176 596l20 -4v-8l-20 4v8zM36 588l-28 -32v-8l60 4l20 16l-44 20h-8zM488 580h24l-4 -12q-10 2 -20 12zM128 568l-4 -12l12 -32l-16 -12l-32 28l-8 -4l4 -40l-8 -8 l-16 4l-16 32h-8l-8 -36l-12 -4l4 -8l92 20l64 44l4 12h-20l-20 12zM472 472l-8 -4l16 -20l-8 48v-24zM660 568l-8 -12v-28l12 16h12l4 16q-6 8 -20 8zM544 516l8 -28l16 8l12 16l-28 52zM140 552l16 -16l-16 8v8zM416 532l16 -16l-12 24zM508 524l-4 -8h-20v8h24zM88 520 h12l4 -20q-11 6 -16 20zM604 496l4 -8l-8 -4v-12l32 16v12h-8l-4 12zM276 404l-64 -60l4 -12l-52 -8l20 -28l8 20l20 4l12 -16l24 -8l12 32h20l24 -28q15 3 20 20l8 8h20l20 -32l32 24h16l12 -36l16 4v8l28 16l-44 16l-64 12h-128l60 80l36 88zM36 508h8v-24q-7 8 -8 24z M444 404l60 -64l16 12l-20 12l-48 52l-52 80zM412 500l24 -44l92 -96l12 16l-16 4q-92 108 -112 120zM352 484l-8 4l-4 -12l12 -12l12 20h-8v8zM228 492v-8l-180 -80l-48 -8v44l44 4l164 44zM256 472l-8 4l-8 -16l-144 -76l-12 -12l20 -8l76 36l80 80zM272 468l-68 -64 l-80 -52l24 -12l56 48h8l56 64q8 12 4 16zM152 464l-16 -12l12 -4l20 12q-5 3 -16 4zM388 456l-4 -12l44 -96q6 -18 28 -24l-28 40l-40 84v8zM348 440l-12 4l-4 -16l8 -4l4 -16h8l4 16h8l4 12l-16 4v8zM556 448l-12 -36l16 4v8h12l4 16q-6 8 -20 8zM596 420l-32 -40h48 l12 -12v-8l12 -4l-28 60zM676 420l12 -40q6 24 -12 40zM344 396v-8l-12 4v-20h8l-4 -16h16v16l16 4l-4 12h-12v8h-8zM472 300l-4 -56l-12 -48l-32 -68l-4 -64l56 116l16 64l-8 64zM108 304l84 -92l48 -120v24l-40 104l-84 84h-8zM384 232l16 -28l12 -44l8 4l20 80l-4 24h-8z M168 216l8 -4l24 -48l4 12l-32 48zM328 196l36 -4l12 8l4 -12h-52l-4 16zM112 188l-12 -8q1 -15 16 -20l80 -80v-8h8l-56 76v8q-20 27 -36 32zM356 168l12 -8l8 -16h-16l-12 12h8v12zM80 148l40 -20l16 -20l20 -52l36 -20l24 -32l-16 -4l-12 20l-32 16v-28l-8 32l-52 -40 l-4 8l28 28q12 1 16 16l-36 12l20 4l20 -8l-28 60l-28 20zM316 96l28 -12l-16 -12h-44v16l12 4zM276 60l24 -8l32 4l12 -16l-64 12zM280 32q9 -16 28 -16l-24 16h-4zM272 20l16 -8l-12 16z" />
<glyph unicode="a" horiz-adv-x="887" d="M-60 1100h420v-100h-120v-670q-16 -186 -117.5 -258t-202.5 -72q-102 0 -280 164l99 97q106 -157 223 -123.5t148 192.5v670h-170v100z" />
<glyph unicode="c" horiz-adv-x="751" d="M160 1216l60 -24l92 12l60 -20l32 16l60 -16q26 3 36 32v-20l-20 -16l-80 12l-20 -12l-48 4l-12 12l-36 4l-36 -16l-72 16l16 -28l40 -8h260l12 24l-12 -36l24 -72l-28 64l-20 4l28 -84l8 -48l-40 128l-20 4l-4 -8l-4 8h-20l8 -24l-12 24h-24v-8l-28 8l16 -56l-12 20 q-1 35 -36 40l-112 -4l8 -48l36 4l12 -8v20l-36 8l-8 8l20 4l28 -12l4 -20l-8 -32l-4 8h-36v-64h8v-8l12 -4l-16 -8l16 -44l16 -24l64 8l80 56l-24 64l20 -44l32 -32l-32 108l28 -80q5 -25 32 -44l12 -4l-32 56l-12 72l28 -96q12 -36 44 -40h8l-8 8l4 4l4 -8h48l16 28l4 -8 l-20 -28l52 -24l4 8l4 -48h8v112h32v-112h8v100l4 -100h12l-4 248h-8l-24 20l-12 -12q-17 -4 -20 -24l-4 12l32 28l28 -12l16 -16v-244l12 -4v-40l-12 -12v-20l12 12v-8l-12 -12l4 -372l8 -12l-8 8l-4 -20l8 -4l4 -44l-8 4v-36l8 4l-12 -12v-28l-36 -24l-20 8h28l16 12 l4 504l-8 -4v-484l-20 -20l-20 8l-4 504l-8 4v-72l-8 4l-64 -88v-60l60 -84h8l-4 24l-12 8l-36 52v52l32 56l24 28l4 -440h-20l-60 -32l-4 4l12 12l-52 20l-80 20l-148 -4l-120 -24l48 -4l44 -16l24 4l-20 -8l24 -24l56 40l56 24l-92 -60l-12 -16l12 -12l20 -60l-32 68 l-24 20l24 -92l-36 96l-24 16l24 -48l8 -52l-24 72q-9 34 -44 40h-8l4 -8l-24 8l4 -12l-28 4l-12 -12l-4 -16l-4 4q1 18 20 32l-56 28l-4 40h-12l-4 -120l-4 116v-112l-12 4l-12 40v72h-20v-248l16 -12l-16 8l-4 248l-8 4l4 48l8 12v-56h48v16l4 -12h12v12l-20 4l4 12l16 -4 v12h-24l8 4v16l-8 4h8l-4 20l-44 4v-20h24l-24 -8l-12 8l4 400l8 -376h8v492l12 8h28l4 -508h12v512l-20 12l24 -12l32 16l-8 -16h8l28 -32l12 -4l8 24l4 -16l-12 -12l48 4l16 -20h12l-4 12l12 8l4 -12l-8 -4v-8l32 8l28 -16h20l8 8l32 8l28 -12l4 20l8 -4l-4 -16l32 16 l56 -8l12 12l28 12l-164 -228l20 16l132 176l56 88q-15 -4 -20 -24l-24 -24l8 16l-104 -20h-148l-92 16l-64 32l76 48h-8v-28h40l-4 -8l20 12l-28 168l-48 72zM392 1212l-20 -8l-28 8h48zM468 1204l12 8l-8 -12h-20l-16 12zM552 1148q1 -19 20 -32l12 -20l32 -20l-20 8 l-44 44l-4 16zM296 1136h44l12 -12h-48zM452 1132l36 -140l-44 144zM652 1136l24 -16l-4 -60v56l-12 12q-19 -2 -24 -20h12l4 8l12 -20v-40h-16l-16 12v48q11 4 20 20zM220 984l-20 -12l8 16l-8 4h12l-8 72zM316 1108l32 -8v-20h-52l-4 8q17 9 24 20zM568 1100l36 -36 l72 -24v-28l-8 -4l-32 12l-56 52l-12 20v8zM264 1040l20 -8v-12l-24 16l4 20v-16zM604 1060l24 -28l40 -12v16h-16zM280 1048l20 -12l-20 4v8zM536 996l8 4l-4 -20l20 -8h-16l-8 8l-12 44zM328 1004h20l-24 -4l-28 8v12zM316 996v-8l-40 4l-16 -8l4 12h52zM380 952l64 8v8 l-32 16zM140 956l44 -24l64 -16l120 -8l160 28l-84 20l-88 -12l-52 -24l-40 4l-12 24l-12 8l-40 -12q-16 6 -24 28zM32 944h20l-20 -8q-23 -3 -24 -28v-96l-8 4l4 112q14 1 28 16zM572 936l-20 -32l28 12l-4 -28l28 36q-11 6 -32 12zM40 924l-16 -8v-492h8v492q20 7 8 8z M80 908q7 -20 32 -28l64 -28l76 -12h160l68 12q-1 7 -132 -8h-88l-128 32l-44 28zM548 896l-4 -28h8l16 20l4 16zM476 892l-4 -16h-8v24zM544 820v-8l60 80zM516 852l20 8l4 28zM308 884v-16h-12l4 20zM640 880v-12l-20 4v-8l64 -4v16l-36 4h-8zM556 868l-20 -32h8l16 28z M92 860l208 -252v8l-176 220q-8 18 -32 24zM532 856q-20 -2 -24 -24l-4 -16l24 8l8 24zM620 848l4 -8h12v-20l8 -4l-8 -4v-12l52 -8v16l-28 4l28 4v16h-8l8 12l-4 12h-32zM136 840l12 -16v12zM152 836q1 -26 32 -28q-2 27 -32 28zM496 836l-20 -36l12 4l-20 -16v-24 q24 5 28 32l-4 12l12 28h-8zM612 828l-8 -16h8v-16l-16 -4v8l-28 -40l4 -8l4 8q8 22 36 24l8 16v24zM184 824l4 -20l16 -12l-12 4l4 -28l28 -12l-8 32h-8l8 8q-9 19 -32 28zM212 820l100 -120v-8l20 -24h12q-1 17 -20 28l4 4l16 -16l32 132l-28 -4l-32 -104l-92 112h-12z M384 812l-32 -124l100 132zM316 720l24 92l-104 4zM504 808l-4 -24l8 4l16 28zM160 808l32 -40l-4 28q-8 8 -28 12zM80 792l4 -16h12l24 -28l4 12l-24 28l-8 -8zM664 788l-4 -496h8l4 496h-8zM224 784l4 -28l16 -8h-12l4 -28l24 -12v28l-12 4l8 8q-21 30 -32 36zM440 752h8 l16 16v16zM592 776l-16 -40q-29 -8 -32 -40l-8 -8q-22 -5 -24 -32l8 -16q-15 -13 -16 -36l16 -32l-4 -24q7 -20 32 -28v-12q8 -23 36 -32l12 -32l20 -4l-20 16v28l-36 16v28l-28 8v48l-16 8l-4 24l20 16l-8 32l8 16h24v28l8 16h24v20q1 15 16 24h12v12zM80 772v-8h8l-8 -8 l12 -20h8v-8l28 -8l8 -12v-24l20 -4l16 -12v-24l-8 -16l24 -16l-4 -24l-16 -12l4 -32l-8 -12l-20 -8l-8 -32l-24 -4l-4 -36l-24 -8l-4 -12l32 8l16 40l16 4l8 32l28 16l-4 -12l-20 -8v-20l-32 -20v-20l-12 -16l-28 -8l-4 -48l56 72h-8l8 20l8 -8l24 36l-4 8l8 8l12 -4l20 52 l-8 -4v24l-8 -12l8 36v-24h16l-4 44h-12l-4 24h8v12l-24 32l-4 -12l12 -8l4 -20h-8v8q0 18 -20 20l-12 8v12q-2 20 -24 24l-12 12q-1 28 -32 32zM596 760l-4 -16l8 -4l16 20l-12 4zM200 760l28 -36v24q-8 7 -28 12zM456 752q-27 -4 -28 -32l-4 8l-28 -28l8 -4l16 20l16 -4 l20 16v24zM548 744l-16 -28l4 -20l20 48h-8zM132 732l16 -12l8 -28h12l-24 48h-8zM272 704l28 -12l-28 36v-24zM568 720l-8 -20l8 -4l16 24h-16zM80 716v-24l12 -8l40 -60v-36l-8 -28l-44 -52v-24l16 12v8l36 40l16 52l-8 40l-36 52q-4 16 -24 28zM112 716v-8l16 -12v20h-16 zM440 712q-14 -4 -16 -20v-16l24 36h-8zM244 708l28 -40l4 20l8 -24l20 -4v16l-12 16h-24v8l-16 4zM416 700l-24 -12v-28l24 16v24zM512 696l-16 -44h8l4 -20v44l12 16zM588 660l-16 -48h24l-16 28l16 -12l12 44v-124l-8 36l-16 -12l12 32h-24l4 -32l36 -44l8 4l-4 160z M80 684v-168l36 40l12 44l-20 -4l8 -16l-4 -12l-16 16v-44h-8v120h8v-36l20 16q-24 38 -36 44zM368 652l24 -20l16 28l-24 -8l4 32zM312 648l-28 12l20 -32l24 20l-4 20h-8l-4 12v-32zM148 676l4 -20l12 16zM536 676l-8 -20l8 -8l12 28h-12zM412 620l-4 -20l48 -52l-8 28 l8 96zM348 668l-48 -64l52 -60l44 56l-16 32l-28 32zM244 660v-120l48 64l-40 52zM180 648l16 -32q-14 9 -16 32zM344 648q16 -5 24 -24l16 -16v-8l-32 -40l-36 44q22 35 28 44zM100 608h28l-8 28zM344 632l-16 -20v-12l8 -4q2 -15 20 -16l16 28q-10 20 -28 24zM488 632v-48 h12l8 -20l-12 -4l24 -44l12 8h-8l-12 16v36l-12 24v28zM516 616v-16l16 -8v32h-8zM168 620v-32l16 16l-8 16h-8zM224 504l-100 -144l-12 -8l-16 -32l184 240l20 40zM396 592l120 -140l68 -92l20 -8l-196 240v8h-8zM388 584l-8 -16l-12 -8l24 -32l-8 32l28 -12l4 4 q-25 31 -28 32zM308 580l-16 -28l24 8l-4 -28l20 20q-1 17 -24 28zM536 540l16 -4l-16 32v-28zM160 564l-12 -28h16l8 16l-4 12h-8zM288 544l-8 -32l28 16v24zM392 552q0 -30 32 -36q0 31 -32 36zM340 544l-200 -264l-4 -16h8l24 36l12 8l-8 -12l116 20h144l80 -16l76 -32 l4 16l-24 16q-11 18 -36 24l-36 -4l-16 20l-56 -8l-24 20l-52 -16l-32 12l8 -16l-12 -8v24l-24 -8l-4 -8l-40 8l-56 -20l160 220zM360 544l-4 -12l96 -116q10 -20 32 -28l-112 148q-8 7 -12 8zM424 540q0 -31 32 -40q-16 31 -32 40zM248 496l28 12v24zM320 400l28 -4l28 112 l-12 8l-4 12zM340 520l-96 -132l68 8l32 120zM536 492l20 -24l16 4l-24 20l-12 28v-28zM564 520l12 -28l12 4q-5 17 -24 24zM116 492h12l8 24zM292 508q-20 -6 -20 -32l24 40zM404 508l28 -28l-4 28l-20 8zM432 504q1 -30 32 -40l-12 36zM264 500l-24 -24v-16l24 8l8 32h-8z M380 492l-20 -92l100 -4l-72 88v8h-8zM464 492l12 -60l20 -16h12l-4 16l-24 24l16 -4v8q-28 31 -32 32zM212 444l20 8l4 28zM600 476l-4 -12l24 -8l-12 12v8h-8zM96 472l-12 -24h12l8 8v16h-8zM448 452h8l16 -20l-4 24l-20 8v-12zM252 460l-16 -20v-16l24 36h-8zM572 456 l24 -36l16 8v-8h8v12l-36 16v8h-12zM228 448q-26 -7 -28 -40l28 12l4 28h-4zM512 412l28 -12l-28 36v-24zM172 392l-8 -36l8 4q19 6 24 32l-8 8h8l4 32zM508 388l36 -12v8q-6 16 -28 20l-4 -12v12l-32 16zM612 400h8v12l-16 4zM100 420v-12l-16 -8l8 16zM548 388v-12l16 -4 q-4 9 -16 16zM136 344h8l16 16v16zM220 360l-4 -8l140 16l104 -4l64 -12l96 -48l-4 12l-76 36l-104 20l-88 4zM160 348v-28l24 40zM128 328l-4 -20h12q16 8 16 28l4 8zM392 344l12 -4l-12 -16l-4 8zM472 336v-16h-12l4 12zM120 328l-24 -36l28 -16l24 32l-28 -12l4 28z M240 328l-4 -16h-8l-4 16h16zM548 312l-12 -16l4 20zM640 292l20 -4l-16 12zM400 292h24l16 -12l12 -28l24 16h20l24 -16l4 -12l16 4l-32 -32l-24 4l8 -56v-64l-16 124l8 16h8v-16h24v24l-52 8l20 -172l8 8l8 -32l36 -48v-8l-88 20l-44 -16l-52 20h-28l-24 -12l-68 12 l-24 -8l20 16l76 -12l36 12l44 -20h40l32 12l68 -16l-16 32l-304 4l-20 -44l20 48v24l-20 60l24 -64l20 -8l-24 88l28 -76l24 -12l-24 56l-12 72l36 -120l24 -8v12l4 -8l24 -4l4 12l28 -8l-8 28l60 -4l8 -8l-48 -4l-12 12q1 -26 28 -28l112 4l-4 44h-28l-20 8l-4 -20l8 -8 l32 -4l12 -8l-48 4l-8 32l12 32v-12h36l-8 72h-16l-20 -12l-4 8l32 12l4 -4v28l-12 24q-6 23 -44 32zM132 240h8v-20l-8 4v16zM388 220h40l8 8v-16l-52 4l-4 12zM404 200v-8l-48 16zM48 196l48 -32l32 -44v-8l-60 48l8 4l20 -12v8l-12 4l-8 12l-48 20v-20h-8l4 20h24z M412 192l24 -16v-8l-20 12zM420 172v-8l-16 8h16zM36 152h20v-48l-16 -8l-8 12l4 36v8zM76 140l20 -12l-16 8v-56l-24 -20l16 16l4 56v8zM408 128v-8l-28 -16l-28 8l-8 12l24 8zM100 128l12 -12l-8 4zM148 60l-16 32l12 -12zM232 12l28 -12h-40z" />
<glyph unicode="d" horiz-adv-x="1052" d="M0 1100h365v-100h-115v-300l344 300h-94v100h400v-100h-125l-450 -400l450 -500h125v-98l-400 -2v100h120l-370 400v-400h115v-100h-365v100h100v900h-100v100z" />
<glyph unicode="e" horiz-adv-x="800" d="M0 1080q90 -360 300 -560q-210 -160 -300 -520q-90 349 -300 520q210 200 300 560z" />
<glyph unicode="q" horiz-adv-x="950" d="M0 1094q50 -234 326 -541l37 -110q1 -12 1 -24q0 -152 -204 -189q-95 40 -130 160l25 -254l45 -136q-100 70 -200 0l45 123l25 267q-35 -120 -130 -160q-203 37 -203 208q0 14 1 29l37 86q275 307 325 541z" />
<glyph unicode="r" horiz-adv-x="1000" d="M-250 1094h8q220 0 242 -300q20 300 248 300h2q223 -45 223 -281q0 -28 -3 -59q-70 -360 -463 -760q-407 400 -477 760q-3 31 -3 59q0 236 223 281z" />
<glyph unicode="s" horiz-adv-x="963" d="M270 1052q80 43 172 43q67 0 141 -23q173 -55 249.5 -185.5t83.5 -272.5q1 -23 1 -45q0 -114 -30 -199q-36 -103 -110 -211q48 -38 138 -19v-109q-120 -24 -229 32q-154 -61 -269 -61q-175 0 -258 142l-159 -75v125l94 51q-71 197 -71 348q0 100 31 181q77 202 216 278z M178 784q-97 -185 36 -506q154 43 237 8t189 -91q131 109 164.5 294.5t-92.5 344t-281.5 147t-252.5 -196.5zM283 189q102 -79 251 -62q-58 44 -120.5 69.5t-130.5 -7.5z" />
<glyph unicode="v" horiz-adv-x="770" d="M240 1212h8v-8l4 8h324l-40 -84l24 -76l-24 -16l-8 -20v-40l-12 -12h-24l8 -12l80 -44l4 8v-16l40 -20v32l20 -4v8l-16 4v16l36 4l-16 -12l4 -4l-8 -44l-16 4l44 -36l36 -20v-164l-108 76l104 -92l-12 4v-8h-8l-28 24l4 -16l-8 -4l-8 8v16l-20 -8l-8 4l12 16l-32 12l16 4 l-4 8l-24 8v16h8l-28 28h-8l4 -28l40 -64l60 -36l44 -8l4 -36l-36 8v-12l12 -8l24 -44v-172l-128 -60l8 8l-60 48l-40 104l-4 104l-292 -4l-24 20l-4 32l-8 12l-44 16v44l-40 40l16 60l-20 24l8 32h-20l-12 -32l20 -20l4 -20l-20 -32v-16l12 -20q30 -8 32 -40v-32l52 -28 l20 -52h20v8l4 -12h52v-292l92 -28l12 12l-16 -20l-52 20l-72 12l-16 -8v-36l16 8l-32 -40l-20 -12l4 16h12l12 12v48l8 12l32 4l-72 48l8 12l28 180l-20 -60l-24 -124h-12l-40 28l-8 -48l-20 4l4 8l16 -4v12l-16 -4l-8 8h8v24l12 -4l4 8l-20 4q-2 16 -20 20l-36 24l-4 168 l152 -116l4 8l-152 120l16 -4v8h8l28 -28l-4 24l12 -8l4 -20l12 4l4 12h8v-16h-8v-12h28v-8l-12 -4l28 -28l-8 -8l16 -16l20 -8v16l-40 68l-52 40l-64 12v40l36 -12l4 12l-36 52l-4 168l124 60q5 -16 24 -20l16 -12l40 -56l16 -72v-96l300 -4v20l-40 -4l-12 272l4 24l-80 24 h-20l-8 -20l-16 -8l-56 4l-4 -296h-52v140l-16 56l-24 40l-32 32l48 20l-8 36l8 12l28 4l-4 88l16 -60l16 -4l-8 72l16 48h-16l-8 -16l-12 68v8zM256 1176h140l-60 20l-4 -8l-44 -8q-22 1 -32 24v-28zM444 1200l-16 -8l4 -8l-8 4l-12 -8l60 -4l-12 8h-20v8l36 -4l4 8h-16z M484 1192l-4 -16h32l4 8l-16 -4q-6 9 -16 12zM536 1176h16v8l-16 4v-12zM520 1184v-8l12 4zM652 1168l24 -24v-16l-20 -52l12 44v32l-28 20l-16 -4l-20 -16l8 16l20 4zM400 1152l-12 -32l4 -40h20l12 -12v-20l-4 16l-24 12l-4 -28l-8 12l4 92h-20l-8 -36v-40q2 -31 32 -44 l-24 -4l4 12l-12 16l-8 28l4 68h-16l-12 -56l16 -56l20 -16l-24 8l-52 -8v-24l-12 -12l8 -20h12l12 52v-52h12v28l8 4l-8 8l12 12l-4 -16l20 4v-12l-16 4l-8 -20l8 -12h20l28 52v-20l108 -32l32 4v36h-12v12l44 28l-4 24l-20 44l12 36h-140zM284 1152l-12 -36v-52l12 -32h20 l-16 44l12 76h-16zM308 1152l-8 -36v-56l20 -28l20 4l-16 28l8 88h-24zM652 1140v-16q-15 -12 -16 -36l-20 -40v28l-16 48l24 -24q10 0 12 20l-16 8l4 20h12zM528 1148l-8 -16l-60 -8l4 12l56 8zM516 1092h-28l-12 8l40 20v-28zM616 1100v-16l12 -4l-4 20h-8zM648 1072 l28 -80l-20 -32h36l4 -12l-24 -8l4 8l-84 4v8h20v8l-8 4l4 4l16 -12l20 -4q19 8 24 28l4 4l-16 32l-20 4l-4 -16l20 -12l-4 -20l-32 4l24 72zM644 1052l-4 -16l16 -4l-4 20h-8zM480 1032l40 8l-4 -8l-32 -8l-12 16l8 8v-16zM252 1028l-8 -28l-12 -8v-16l8 -8l24 56z M272 1028l-20 -48l8 -12h8l16 52l-4 8h-8zM208 996v-20l16 -8l4 32zM628 1000q0 -10 12 -12v12h-12zM460 944l-4 -264l-24 -12l16 28l-4 12h-12l-4 -36l-40 -4v52h-16l-4 -44l8 -8l-68 4l-4 276l72 -16l76 16zM228 904l8 -12l32 12v16l-32 16zM420 912h-80l-28 8l8 -12 l104 -4l28 12v8zM500 912l-4 -20l36 -8l4 16l-12 24h-12zM560 912l-36 -212l4 -12l40 220zM584 892l-4 -12l12 -4v16h-8zM600 864l12 -4l8 12l-8 -4v8l-12 4v-16zM424 876l4 -12l-16 8l-84 -4l8 -12h-8v-112h8v16l16 -4v-8h20v8l-12 4h12v8h-12l12 12h-12q-14 6 -16 24 l-12 -4v12h16l-16 4v8h12l8 -8l8 16l-16 4h28v8l-12 -4v8l16 4l-36 4l8 8l72 -4l-4 -12h16v28h-8zM56 872l-20 -16h12l4 8l48 -12l28 -16l-12 12h20l-8 8h-28l4 12h-12l4 -8l-12 -4l4 16h-32zM256 856l-8 -32h32v16q-13 14 -24 16zM380 856l20 -8v8h-20zM624 856v-8h24 l-8 -8h12l4 -8l16 4l-16 16h-24zM140 848l-12 -4l12 -8v12zM496 832v-20l28 4l-8 32h-8zM32 832h-8v-84l12 -4h-8l4 -32l8 32l12 12v20q-4 19 -20 28l8 36l-8 4v-12zM396 836h16v8h-20zM416 836l8 -8l-16 4l12 -16l16 12h-8l4 16h-12zM380 840v-8l-24 -20v-20l16 -4l4 8 l32 -8l8 12l-4 12q-9 19 -32 28zM84 836l-12 -20l20 -32l8 4v16h-8l-12 20q13 10 4 12zM568 832v-12l12 4zM664 832l8 -12h12v12l-8 -4zM112 828l-4 -68l16 -60l48 -68l24 -16v20l-8 4l8 24l-24 -8l-4 16l16 16l-28 -8l-4 16l16 16l-28 -4v12l16 12h-20v12l16 12h-20l-4 16 l20 4l-24 20l16 8l-12 12v8q-4 4 -16 4zM140 828q5 -16 24 -20v8h-12v12h-12zM424 816l-4 -28l12 12v16h-8zM160 804l20 -24v24l-12 -4zM600 804v-8h12l4 -12l8 12v-16l56 -36l8 16l-12 -8v16h-16l-28 12l12 4l-4 8l-8 -4v12l-24 4h-8zM560 800l-4 -20l32 -20l4 20 q-23 18 -32 20zM336 776l12 -8v8h8v-8h-8l-16 20zM24 788l20 -4l4 -20h-12l-8 -12l-4 28v8zM100 784l-20 -60l8 -4v16h16v8l-8 -4v8zM392 780l4 -24l-20 -4l24 -4v12h8l-4 -12h28l-4 32h-12l8 -12l-20 -4l-4 12zM652 772h16l-20 8zM260 776l-4 -24h20l-4 24h-12zM488 752 l4 -8h24v12l-12 16zM184 768l12 -32l-4 32h-8zM600 768l-4 -16l20 -12l4 20l-8 8h-12zM628 748v-20l8 -8l8 4v20zM656 732v-28h8l4 20zM92 720l24 -24v12l-12 8l4 12zM196 728l12 -44l-4 44h-8zM340 728v-40l12 -8l8 48h-20zM400 728q1 -43 16 -44v32l8 4v8h-24zM676 716 l-4 -24l12 -4v28h-8zM320 712l-4 -32l16 -8l-4 40h-8zM36 704l12 -44l4 44h-16zM260 704v-16l16 4l-4 12h-12zM496 704l-4 -16h12v16h-8zM696 700l-4 -24h8l4 24h-8zM60 692l-4 -12l16 -4v-12l12 4q-4 17 -24 24zM120 692v-32l16 4l-12 20zM532 668l-8 -20l16 -8l12 -44 l24 -12h16l8 -16l4 -48l36 -36l-16 -44l20 -56l-12 -12l20 -4q16 16 16 40l-24 28l20 60q-6 16 -28 24l-12 12v44q-6 21 -32 28q-28 5 -28 36q-5 25 -32 28zM564 660h12l-12 -8l20 -4v12l-8 8h-16zM68 660l-12 -12l4 -12h12l-4 -12h8v20l-12 -4l4 12l8 -8l4 12zM132 636 l28 -4l-20 12zM208 644v-8h124l4 8h-128zM524 640l4 -16l12 4l-4 8zM608 636l-4 -20h-8l20 -8v16zM80 608h12l-4 20zM96 612v-16h32v8zM172 604v-20h8v12h12v8h-20zM616 604l12 -8v-24l20 -4v12l-12 4v20h-20zM512 600v-16l12 -8l-8 -24l24 8l4 -12l-16 -16l8 -4l20 8l4 -12 l-16 -12v-8l28 4l-20 -24h24l4 -12l-16 -4l-4 -8l24 -4q-5 -15 -24 -16l20 -12l4 -12l-12 -4l24 -28l4 72l-8 48l-12 28l-44 52q-6 14 -24 16zM108 580v-8h16l-4 -12l20 -4l-4 -12l16 8h-8v12l-16 8l12 -4v12l-24 -4zM572 560v8l12 4l-24 8zM632 568v-28l44 -36l-4 28l-8 -4 v20h-8l4 -8h-24v16l16 4l-12 4zM264 548l136 -4l8 -12v-264l-64 16l-52 -4l-40 -12v24l44 8h88l20 -8v8l-80 16l-60 -12l-12 -8v240zM268 536l-4 -24l16 -4l4 36zM320 544l4 -52l16 4v48h-20zM424 548h52v-148l24 -60l20 -32l24 -20l16 4l-56 -28l-8 -12l12 -8v-16l-16 20 l-8 -4v-16l-20 -44l12 -16v-56q-6 2 -8 56l-16 16h-12l12 -52l-4 -32l-16 -36h12l16 16l-4 -20l16 -60l-340 4l40 84l-4 36l8 -4l4 -28l-8 -28h140l12 52v-52h16l8 28v56l8 -4v-80h16v104l-28 24l116 -4l20 40q-2 15 -16 20v-20l-20 -32l4 24l8 4v20l-16 4l-4 -36l-16 -12 l8 12v36h-16l-4 -32h-8l8 20q-6 12 -20 12l4 -20l-12 -16h-20v20l4 -16h12l8 8l-8 24h-16l8 8h56v292zM12 540l-4 -20l8 -4l4 20zM156 532l12 -4v12h-8zM380 540v-32l12 -4l4 24l-8 12h-8zM588 520l8 4l-8 16v-20zM212 532l-4 -16l8 -4l8 16zM296 532v-28l-8 -16h16v44h-8z M356 532v-32l-8 -12h16l4 44h-12zM28 528l-4 -24l8 -4l8 24zM440 528l4 -16l12 4v12h-16zM608 500h-8l4 -20l4 16h12l4 -20h-12v-72h24l-20 44l4 20l12 16l-32 28zM48 512l-4 -20l12 -8v28h-8zM668 500l4 -24l-8 -8l16 -4l-16 -12h20v-20h-12q-11 2 -12 16l-4 -16l24 -24 v-24l-8 -4l12 -4v120q-4 4 -16 4zM68 496v-24l12 -4l4 20l-8 8h-8zM92 476v-24l16 -8l4 24l-8 8h-12zM204 448h12l8 24l-20 4v-28zM276 400h16v28l8 8h16v8h-20v12h52l-8 8l-56 -4v12h-8v-72zM436 464l8 -24h8v8l8 4l-4 16zM44 460v-20l12 16zM352 460l4 -12l-16 4v-8l20 -4 v12l12 4h-8zM124 456l-4 -24l32 -20l4 16l-28 24zM60 452v-12h12l-8 -12h16l4 8h-8zM368 448v-32h16v28q-4 4 -16 4zM296 420l8 -28l12 -4l4 -12l24 12l4 12l8 4v20l-24 -4l-28 8zM88 412l20 4l-12 8l-8 -4v-8zM548 416l-12 -16h24l-4 4zM104 408l12 -8v8h-12zM360 400h12 l-16 -4v-12l-16 -4l32 -4l-8 -8l-20 4l-16 -12h-16l8 4v8h-8q-1 16 -24 16l12 4l-20 4l-4 -56h16l8 8l-16 4h84l4 -8h-16l28 -4v20l-16 4h16l-8 4l8 16h-12l4 8l8 -4v8l-8 4h8v8h-20zM188 396l8 -24l16 4l8 24l-28 4zM32 400l-8 -16h8l4 -8h16v12l-12 -8v16zM436 396l-4 -12 l20 -24l16 32l-8 8zM136 392l8 -8v8h-8zM564 372l8 -4v12l16 -4v-8h-12l28 -16h24v-8l20 8l4 8l-24 4l-8 -8l-36 28h-20v-12zM308 376l-4 -8l-20 4l8 8zM72 372l8 -24h12l-4 16l-8 -8l4 12zM652 352l24 8h-20zM16 360h8l-8 -24l8 -4l-8 -4v-12l8 -4l-8 -16l20 -4l-20 -12v-8 l24 4l-4 -8l12 -4v-8l-28 4l-8 16v76zM96 348q4 -15 28 -24l4 16l-24 4zM180 332v-20l12 -20l16 8v8l8 4v16l-16 4h-20zM332 324h16l-4 8h-16zM260 320v-8l32 12zM448 316l-4 -16l36 -20l-8 44zM60 284l12 -4l-24 -4zM120 260l-20 -4l8 -16l-16 12l-28 4l-24 -24l4 -28 l16 -16l16 4v16h-12l-4 20l20 8l12 -16l-28 -68l-8 8l-20 60l16 40h68zM68 220l12 -4v12h-8zM108 216v-20l-16 -52l20 -56l-16 24l-20 4l-4 -16l12 -4l8 -20l-16 -12l-16 16q47 116 48 136zM52 188l4 -20h12v16zM216 192q16 -1 20 -16l-8 -4l4 12l-40 -8v8l24 4v4zM404 180 l12 -28l4 -52l-12 -36l20 4l16 52v32q-6 27 -32 36zM340 188l-4 -12l-8 8zM376 184l-4 -12q14 -14 16 -44l-8 -64h20l8 24l-4 80l-8 12zM80 124l16 -8l-4 24zM216 124l-4 -12h12v8h8l4 -12l-48 -12l12 32zM44 64l16 -16h-8l-16 24l8 32v-40zM252 88l-16 -12l-52 -4l12 16h48 l4 8zM68 88v-12h12v12h-12zM108 76l4 -12l-20 -16q11 8 16 28zM160 40l-4 -12h60l32 -12l32 8v8l20 4l-84 4h-56zM316 32l24 -4l12 12h-32zM356 40l4 -12h-16l4 -8l32 4l-16 4v12h-8zM368 32l48 4l-44 4zM436 36l20 -20v20l-16 4z" />
<glyph unicode="w" horiz-adv-x="1479" d="M-175 1020q88 36 175 36q88 0 175 -36q165 -191 -55 -400q310 110 360 -190q-210 -380 -450 -26q-30 -254 84 -374l-34 -30h-160l-27 30q107 120 77 374q-240 -354 -450 26q50 300 380 190q-232 236 -75 400z" />
<glyph unicode="&#x25fc;" horiz-adv-x="1100" d="M0 1100h1100v-1100h-1100v1100z" />
</font>
</defs>
</svg>
